<svg width="1308" height="296" viewBox="0 0 1308 296" fill="none" xmlns="http://www.w3.org/2000/svg">
<g opacity="0.5">
<path d="M1279.14 135.577L1292 128.155L1304.86 135.577V150.423L1292 157.845L1279.14 150.423V135.577Z" stroke="#6497FB" stroke-width="2"/>
<path d="M1018.14 272.577L1031 265.155L1043.86 272.577V287.423L1031 294.845L1018.14 287.423V272.577Z" stroke="#6497FB" stroke-width="2"/>
<circle cx="862.5" cy="166.5" r="1.5" stroke="#508DFF" stroke-width="2"/>
<circle cx="602.5" cy="238.5" r="1.5" stroke="#508DFF" stroke-width="2"/>
<circle cx="1082.5" cy="14.5" r="13.5" stroke="#508DFF" stroke-width="2"/>
<circle cx="14.5" cy="31.5" r="13.5" stroke="#508DFF" stroke-width="2"/>
<path d="M1139.73 111.476C1145.39 117.139 1145.39 126.319 1139.73 131.982" stroke="#508DFF" stroke-width="2"/>
<path d="M410.032 270.438C416.127 265.243 425.279 265.973 430.474 272.068" stroke="#508DFF" stroke-width="2"/>
<path d="M1242.76 261.498C1234.75 261.641 1228.14 255.267 1228 247.26" stroke="#508DFF" stroke-width="2"/>
<path d="M153.727 152.093C156.832 144.711 165.333 141.244 172.714 144.348" stroke="#508DFF" stroke-width="2"/>
<rect x="1016" y="118" width="20" height="17" stroke="#508DFF" stroke-width="2"/>
<rect x="8" y="243" width="20" height="17" stroke="#508DFF" stroke-width="2"/>
<path d="M684.118 51.7045L681.938 27.5539L703.943 37.7416L684.118 51.7045Z" stroke="#6497FB" stroke-width="2"/>
<line x1="720.051" y1="233.684" x2="730.051" y2="203.684" stroke="#6497FB" stroke-width="2"/>
<line x1="245.752" y1="49.7001" x2="276.668" y2="56.3448" stroke="#6497FB" stroke-width="2"/>
</g>
</svg>
